<?xml version="1.0" encoding="utf-8"?>
<!-- Generator: Adobe Illustrator 22.1.0, SVG Export Plug-In . SVG Version: 6.00 Build 0)  -->
<svg version="1.1" id="Capa_1" xmlns="http://www.w3.org/2000/svg" xmlns:xlink="http://www.w3.org/1999/xlink" x="0px" y="0px"
	 viewBox="0 0 612 169.5" style="enable-background:new 0 0 612 169.5;" xml:space="preserve">
<style type="text/css">
	.st0{fill:#FFFFFF;}
	.st1{fill:#31B700;}
	.st2{fill:#20201E;}
</style>
<g>
	<path class="st0" d="M507.8,90.7c-1.2,0-2.2,0-3.2,0c-0.8-0.1-1.3,0.3-1.7,1c-1.1,1.8-2.2,3.6-3.3,5.4c-0.2,0.4-0.5,0.7-0.8,1.1
		c-0.4-0.6-0.7-1.1-1-1.5c-1.1-1.7-2.1-3.4-3.2-5.1c-0.3-0.4-0.5-0.8-1.1-0.8c-1.2,0-2.3,0-3.6,0c0,6.1,0,12,0,18c1.3,0,2.5,0,3.8,0
		c0-1.3,0-2.5,0-3.8c0-1.2,0-2.3,0-3.5s-0.2-2.4,0.3-3.7c1.6,2.5,3.1,4.7,4.7,7.1c0.6-0.9,1.2-1.7,1.7-2.5c0.6-0.8,1.1-1.7,1.7-2.5
		c0.5-0.7,0.8-1.6,1.9-2.2c0,3.8,0,7.5,0,11.1c1.4,0.1,2.6,0.3,3.9-0.1C507.8,102.6,507.8,96.8,507.8,90.7z M367.8,59.4
		c0,6.2,0,12.1,0,18c0.3,0.1,0.4,0.1,0.6,0.1c2.9,0,5.8,0.1,8.7,0c1.1,0,2.2-0.3,3.2-0.7c1.6-0.6,2.6-1.9,2.8-3.7
		c0.2-1.9-0.4-3.5-2.1-4.5c-0.3-0.2-0.6-0.3-1-0.6c0.4-0.3,0.7-0.4,0.9-0.7c2.3-2.4,1.6-6.1-1.5-7.3c-1-0.4-2.1-0.5-3.1-0.6
		c-1.9-0.1-3.8,0-5.7,0C369.6,59.4,368.7,59.4,367.8,59.4z M448.5,77.5c0-1.8,0-3.6,0-5.4s-0.2-3.6,0.2-5.6c0.4,0.5,0.7,0.9,1,1.2
		c2.3,3,4.5,5.9,6.8,8.9c0.3,0.4,0.8,0.9,1.3,0.9c0.9,0.1,1.8,0,2.7,0c0.3-2.3,0.3-16.8-0.1-18c-1.2,0-2.4,0-3.8,0
		c0,3.5,0,6.9,0,10.8c-0.6-0.8-1-1.2-1.3-1.6c-2.1-2.7-4.2-5.5-6.3-8.2c-0.4-0.5-0.6-1.1-1.4-1.1c-1,0-2,0-2.9,0
		c-0.3,2.1-0.3,16.7,0.1,18C445.9,77.5,447.1,77.5,448.5,77.5z M477.2,59.1c-5.5,0-9.7,4-9.7,9.3s4.2,9.4,9.7,9.4
		c5.4,0,9.7-4.2,9.6-9.5C486.7,63.1,482.6,59.1,477.2,59.1z M351.2,59.1c-5.5,0-9.7,4.1-9.7,9.4c0,5.2,4.2,9.3,9.6,9.4
		c5.4,0,9.7-4.1,9.8-9.4C360.9,63.2,356.8,59.1,351.2,59.1z M589.2,109.1c5.6,0.1,9.7-3.8,9.8-9.2c0.1-5.4-4-9.5-9.5-9.6
		s-9.7,4-9.8,9.3C579.8,105,583.8,109.1,589.2,109.1z M369.4,108.6c3.1,0,6.2,0.4,9.2-0.1c5.5-0.8,8.6-6.2,7-11.6
		c-1.1-3.7-4.5-6.2-8.8-6.3c-2.2-0.1-4.5,0-6.7,0c-0.3,0-0.5,0.1-0.8,0.2C369.4,96.8,369.4,102.7,369.4,108.6z M441,108.7
		c3.1,0,6.1,0.3,9-0.1c5.4-0.6,8.8-5.9,7.4-11.2c-1-4-4.4-6.6-8.9-6.7c-2.2-0.1-4.3,0-6.5,0c-0.3,0-0.6,0.1-1,0.2
		C441,96.8,441,102.7,441,108.7z M438.1,77.5c-1.6-2.3-2.9-4.3-4.3-6.4c0.3-0.2,0.5-0.3,0.7-0.5c2.6-1.6,3.6-4,2.9-6.8
		c-0.6-2.6-2.5-4.1-5.5-4.4c-0.5,0-1-0.1-1.5-0.1c-2.1,0-4.2,0-6.4,0c-0.5,0-1,0.1-1.5,0.1c0,6,0,12,0,17.9c1.4,0,2.6,0,4,0
		c0-1.9,0-3.7,0-5.5c0.4-0.1,0.8-0.1,1.1-0.1c1.4-0.2,2.3,0.3,3,1.5s1.5,2.3,2.3,3.5c0.3,0.5,0.7,0.8,1.3,0.8
		C435.4,77.5,436.5,77.5,438.1,77.5z M410.8,108.7c3,0,5.8,0.2,8.6,0c4.5-0.4,7.8-4.1,8-8.6c0.2-4.3-2.7-8.2-7.1-9
		c-1.5-0.3-3.1-0.3-4.6-0.3c-1.6-0.1-3.2,0-4.9,0C410.8,96.8,410.8,102.7,410.8,108.7z M504.8,77.5c2.4,0,4.6,0,6.9,0
		c0.9,0,1.8-0.1,2.6-0.3c4.2-0.9,7.1-4.4,7.1-8.7c0.1-4.1-2.6-7.6-6.7-8.7c-1-0.3-2-0.4-3-0.4c-1.9-0.1-3.8,0-5.7,0
		c-0.4,0-0.9,0.1-1.3,0.1C504.8,65.5,504.8,71.4,504.8,77.5z M334.5,61.8c-0.1-0.2-0.1-0.3-0.2-0.4c-0.2-0.2-0.3-0.3-0.5-0.4
		c-2.2-1.6-4.7-1.9-7.3-1.8c-4.3,0.3-7.9,3.7-8.4,8c-0.6,4.8,1.8,8.8,6.1,10.2c3.1,1,6,0.6,8.9-0.8c1.5-0.7,2.5-1.7,2.2-3.6
		c-0.2-1.4,0-2.9,0-4.3c0-0.4-0.1-0.9-0.1-1.3c-2.6,0-5.1,0-7.6,0c0,1.1,0,2.2,0,3.4c1.3,0,2.5,0,3.8,0c0,0.5,0.1,0.8,0.1,1.1
		c0,0.3,0.1,0.6,0,0.8c-0.1,0.3-0.3,0.7-0.6,0.9c-2.4,1.3-5.8,1.1-7.6-1.6c-1.5-2.2-1.2-5.5,0.6-7.4c1.7-1.8,4.5-2.1,6.9-0.7
		c0.5,0.3,0.9,0.6,1.4,0.9C333,63.6,333.8,62.6,334.5,61.8z M540.6,70.2c0-1.3,0-2.4,0-3.7c-2.8,0-5.5,0-8.3,0c0-1.3,0-2.3,0-3.6
		c3.2,0,6.3,0,9.4,0c0-1.3,0-2.3,0-3.4c-4.6,0-9,0-13.4,0c-0.4,2.6-0.2,16.7,0.1,17.9c4.4,0,8.9,0,13.4,0c0-1.2,0-2.2,0-3.5
		c-3.2,0-6.4,0-9.6,0c0-1.3,0-2.5,0-3.7C535.1,70.2,537.8,70.2,540.6,70.2z M414,70.2c0-1.3,0-2.4,0-3.6c-2.8-0.1-5.6,0.1-8.3-0.1
		c0-1.3,0-2.3,0-3.5c3.2-0.1,6.4,0,9.5-0.1c0-1.3,0-2.3,0-3.3c-2.2-0.4-12.4-0.3-13.5,0.1c0,5.9,0,11.8,0,17.7c4.6,0,9.1,0,13.6,0
		c0-1.2,0-2.3,0-3.4c-3.3-0.2-6.4,0.1-9.6-0.1c0-1.3,0-2.4,0-3.7C408.6,70.2,411.3,70.2,414,70.2z M466.5,101.5c2.9,0,5.6,0,8.4,0
		c0-1.3,0-2.3,0-3.6c-2.8,0-5.5,0-8.4,0c0-1.2,0-2.3,0-3.5c3.2-0.3,6.4,0.1,9.5-0.2c0-1.3,0-2.3,0-3.4c-4.6,0-9,0-13.5,0
		c0,6,0,11.9,0,17.9c4.6,0,9.1,0,13.7,0c0-1.1,0-2.2,0-3.4c-3.3,0-6.4,0-9.7,0C466.5,104,466.5,102.9,466.5,101.5z M527.1,90.8
		c-4.6,0-9,0-13.5,0c0,6,0,11.9,0,17.9c4.6,0,9.1,0,13.6,0c0-1.1,0-2.2,0-3.4c-3.2,0-6.4,0-9.6,0c0-1.3,0-2.5,0-3.8
		c2.8,0,5.5,0,8.3,0c0-1.3,0-2.3,0-3.6c-2.8,0-5.5,0-8.2,0c0-1.3,0-2.3,0-3.5c1.7,0,3.2,0,4.8,0c1.5,0,3.1,0,4.7,0
		C527.1,93.1,527.1,92,527.1,90.8z M360.1,90.7c-0.1,0.3-0.2,0.4-0.2,0.5c0,1.7,0,3.5,0,5.2c0,1.8,0.1,3.7-0.1,5.5
		c-0.2,2.2-1.6,3.5-3.7,3.5c-2.2,0-3.6-1.2-3.9-3.4c-0.1-0.5-0.1-1-0.1-1.5c0-2.6,0-5.1,0-7.7c0-0.7,0-1.3,0-2c-1.4,0-2.7,0-4,0
		c0,4-0.2,7.9,0,11.8c0.2,3.6,2.6,5.9,6,6.4c0.6,0.1,1.2,0.1,1.8,0.1c4.9,0,7.7-2.8,7.8-7.7c0-3.2,0-6.4,0-9.5
		c0-0.4-0.1-0.7-0.2-1.1C362.5,90.7,361.4,90.7,360.1,90.7z M593.2,77.4c1.5,0,2.7,0,4.2,0c-2.6-6.2-5.2-12.2-7.7-18.1
		c-1.4,0-2.6,0-3.8,0c-2.6,6-5.1,12-7.7,18.1c1.5,0,2.8,0,4.1,0c0.6-1.3,1.1-2.6,1.7-3.9c2.6,0,5.1,0,7.6,0
		C592.1,74.9,592.7,76.2,593.2,77.4z M395.6,90.7c-2.6,6-5.1,12-7.7,18c1.5,0,2.7,0,4.1,0c0.6-1.3,1.1-2.6,1.7-3.9c2.6,0,5,0,7.6,0
		c0.6,1.3,1.1,2.6,1.7,3.9c1.4,0,2.7,0,4.2,0c-2.6-6.1-5.1-12.1-7.7-18.1C398.1,90.7,396.9,90.7,395.6,90.7z M530.9,90.7
		c2.2,3.2,4.1,6.1,6,8.9c-2.1,3-4.1,5.9-6.3,9.2c1,0,1.7-0.1,2.3,0c1.6,0.2,2.8-0.3,3.5-1.8c0.5-1,1.3-2,1.9-2.9
		c0.3-0.4,0.6-0.7,0.9-1.2c0.4,0.6,0.7,1.1,1,1.5c0.8,1.2,1.6,2.4,2.4,3.6c0.2,0.3,0.6,0.7,1,0.8c1.3,0.1,2.6,0,4.2,0
		c-2.2-3.3-4.2-6.2-6.3-9.2c1.1-1.5,2-3,3-4.4c0.9-1.4,2-2.8,2.9-4.4c-1.7,0-3,0-4.5,0c-1.2,1.9-2.4,3.7-3.7,5.7
		c-0.4-0.5-0.7-0.9-1-1.3c-0.8-1.2-1.5-2.5-2.4-3.6c-0.3-0.4-0.7-0.7-1.2-0.8C533.7,90.6,532.5,90.7,530.9,90.7z M334.5,93.3
		c-3.6-3.9-10.3-3.9-14-0.1s-3.4,10.1,0.5,13.7c3.7,3.4,10.7,2.9,13.6-1.1c-0.8-0.8-1.7-1.5-2.5-2.3c-3.7,2.4-6.3,2.5-8.4,0.3
		c-1.9-2-2.1-5.5-0.4-7.7c0.8-1,1.8-1.6,3-1.9c2.2-0.5,4,0.6,5.7,1.9C333,95.1,333.7,94.2,334.5,93.3z M576.9,93.3
		c-3.7-3.9-10.4-3.8-14-0.1c-3.6,3.8-3.4,10.2,0.5,13.7c3.8,3.4,10.8,2.9,13.6-1.1c-0.8-0.8-1.7-1.5-2.5-2.3
		c-0.6,0.4-1.1,0.8-1.6,1.2c-2,1.2-4.4,1.1-6.1-0.2c-2.3-1.8-2.9-5.5-1.2-8c1.6-2.4,4.7-3,7.4-1.3c0.5,0.3,1,0.7,1.5,1
		C575.3,95.1,576.1,94.2,576.9,93.3z M560.1,77.5c4.4,0,8.6,0.1,12.9-0.1c0-1.3,0-2.3,0-3.6c-3,0-5.8,0-8.9,0c0-4.9,0-9.6,0-14.3
		c-1.4,0-2.7,0-4,0C560.1,65.6,560.1,71.5,560.1,77.5z M342.7,108.7c0-6.1,0-11.9,0-17.9c-1.3,0-2.6,0-3.8,0c0,6,0,11.9,0,17.9
		C340.1,108.7,341.3,108.7,342.7,108.7z M393.7,77.5c0-6.1,0-12,0-17.9c-1.3,0-2.5,0-3.9,0c0,6,0,12,0,17.9
		C391.2,77.5,392.3,77.5,393.7,77.5z M551.9,90.8c0,6,0,12,0,17.9c1.3,0,2.5,0,3.8,0c0-6,0-11.9,0-17.9
		C554.4,90.8,553.2,90.8,551.9,90.8z M518,89.4c1.4-0.1,2.5,0.1,3.3-0.4c1.1-0.7,2.2-1.7,3-2.9c-1.1-0.5-2.1-0.9-3.3-1.4
		C520.1,86.2,519.2,87.6,518,89.4z"/>
	<path d="M507.8,90.7c0,6.1,0,12,0,17.9c-1.3,0.4-2.5,0.2-3.9,0.1c0-3.7,0-7.3,0-11.1c-1.1,0.6-1.4,1.5-1.9,2.2
		c-0.6,0.8-1.1,1.7-1.7,2.5c-0.5,0.8-1.1,1.6-1.7,2.5c-1.6-2.4-3.1-4.7-4.7-7.1c-0.5,1.4-0.2,2.6-0.3,3.7c0,1.2,0,2.3,0,3.5
		s0,2.4,0,3.8c-1.3,0-2.5,0-3.8,0c0-6,0-11.9,0-18c1.3,0,2.4,0,3.6,0c0.6,0,0.9,0.4,1.1,0.8c1.1,1.7,2.1,3.4,3.2,5.1
		c0.3,0.5,0.6,0.9,1,1.5c0.3-0.4,0.6-0.7,0.8-1.1c1.1-1.8,2.3-3.6,3.3-5.4c0.4-0.7,0.9-1,1.7-1C505.6,90.7,506.6,90.7,507.8,90.7z"
		/>
	<path d="M367.8,59.4c1,0,1.9,0,2.7,0c1.9,0,3.8-0.1,5.7,0c1,0,2.1,0.2,3.1,0.6c3.1,1.2,3.8,4.9,1.5,7.3c-0.2,0.2-0.5,0.4-0.9,0.7
		c0.5,0.3,0.8,0.5,1,0.6c1.8,1,2.3,2.6,2.1,4.5c-0.2,1.8-1.2,3-2.8,3.7c-1,0.4-2.2,0.7-3.2,0.7c-2.9,0.1-5.8,0-8.7,0
		c-0.2,0-0.3-0.1-0.6-0.1C367.8,71.5,367.8,65.6,367.8,59.4z M371.7,73.9c2,0,3.7,0.1,5.5,0c1.2-0.1,1.8-0.8,1.8-1.8
		s-0.5-1.7-1.7-1.9c-1.9-0.3-3.7-0.2-5.7-0.1C371.7,71.5,371.7,72.6,371.7,73.9z M371.7,66.8c1.7-0.1,3.3-0.1,4.8-0.2
		c1-0.1,1.5-0.8,1.5-1.7c0-0.9-0.4-1.5-1.4-1.8c-1.6-0.4-3.3-0.2-4.9-0.1C371.7,64.3,371.7,65.4,371.7,66.8z"/>
	<path d="M448.5,77.5c-1.4,0-2.5,0-3.7,0c-0.3-1.3-0.4-15.9-0.1-18c0.9,0,1.9,0,2.9,0c0.8,0,1,0.6,1.4,1.1c2.1,2.7,4.2,5.5,6.3,8.2
		c0.3,0.4,0.7,0.8,1.3,1.6c0-3.8,0-7.2,0-10.8c1.4,0,2.6,0,3.8,0c0.3,1.1,0.4,15.7,0.1,18c-0.9,0-1.8,0.1-2.7,0
		c-0.5-0.1-0.9-0.5-1.3-0.9c-2.3-2.9-4.5-5.9-6.8-8.9c-0.3-0.3-0.5-0.7-1-1.2c-0.4,2-0.2,3.9-0.2,5.6
		C448.4,73.9,448.5,75.7,448.5,77.5z"/>
	<path d="M477.2,59.1c5.5,0,9.6,4,9.6,9.3s-4.2,9.5-9.6,9.5s-9.7-4.1-9.7-9.4C467.5,63.1,471.7,59.1,477.2,59.1z M482.5,68.5
		c0-3.3-2.3-5.7-5.5-5.7c-3.1,0-5.3,2.4-5.3,5.6c0,3.2,2.4,5.7,5.5,5.7C480.2,74.1,482.5,71.7,482.5,68.5z"/>
	<path d="M351.2,59.1c5.5,0,9.7,4,9.6,9.4c0,5.3-4.3,9.4-9.8,9.4c-5.4,0-9.6-4.1-9.6-9.4C341.5,63.2,345.7,59.1,351.2,59.1z
		 M356.6,68.5c0-3.3-2.3-5.7-5.5-5.7c-3.1,0-5.3,2.4-5.3,5.6c0,3.2,2.4,5.7,5.5,5.7C354.4,74.1,356.6,71.7,356.6,68.5z"/>
	<path d="M589.2,109.1c-5.4-0.1-9.4-4.1-9.4-9.4c0.1-5.3,4.3-9.4,9.8-9.3s9.6,4.2,9.5,9.6C598.9,105.3,594.8,109.2,589.2,109.1z
		 M589.5,105.4c3.1,0,5.4-2.4,5.4-5.6s-2.5-5.7-5.5-5.7s-5.4,2.5-5.4,5.7C584,102.9,586.4,105.4,589.5,105.4z"/>
	<path d="M369.4,108.6c0-5.9,0-11.8,0-17.8c0.3-0.1,0.5-0.2,0.8-0.2c2.2,0,4.5-0.1,6.7,0c4.3,0.1,7.7,2.6,8.8,6.3
		c1.6,5.3-1.5,10.8-7,11.6C375.7,109,372.6,108.6,369.4,108.6z M373.5,94.4c0,3.7,0,7.2,0,10.8c1.3,0,2.5,0.1,3.7,0
		c3-0.3,4.7-2.4,4.7-5.4c-0.1-3-2-5.1-4.9-5.3C375.8,94.3,374.7,94.4,373.5,94.4z"/>
	<path d="M441,108.7c0-6,0-11.9,0-17.8c0.3-0.1,0.7-0.2,1-0.2c2.2,0,4.4-0.1,6.5,0c4.5,0.1,7.9,2.8,8.9,6.7c1.4,5.3-2,10.5-7.4,11.2
		C447.1,109,444.1,108.7,441,108.7z M445.1,105.1c1.4,0,2.6,0.1,3.9,0c2.6-0.3,4.3-2.1,4.5-4.8c0.2-2.8-1.1-4.9-3.6-5.7
		c-1.6-0.5-3.1-0.3-4.8-0.2C445.1,98.1,445.1,101.5,445.1,105.1z"/>
	<path d="M438.1,77.5c-1.5,0-2.7,0-3.9,0c-0.7,0-1-0.3-1.3-0.8c-0.8-1.2-1.6-2.3-2.3-3.5c-0.7-1.2-1.6-1.8-3-1.5
		c-0.3,0.1-0.6,0.1-1.1,0.1c0,1.8,0,3.6,0,5.5c-1.4,0-2.6,0-4,0c0-5.9,0-11.9,0-17.9c0.5,0,1-0.1,1.5-0.1c2.1,0,4.2,0,6.4,0
		c0.5,0,1,0,1.5,0.1c2.9,0.3,4.8,1.8,5.5,4.4c0.7,2.9-0.3,5.3-2.9,6.8c-0.2,0.1-0.4,0.2-0.7,0.5C435.2,73.2,436.5,75.2,438.1,77.5z
		 M426.5,68.2c1.3,0,2.5,0,3.6,0c0.6,0,1.2-0.1,1.8-0.3c1-0.4,1.6-1.3,1.6-2.3c0-1.1-0.7-2.1-1.8-2.3c-1.7-0.3-3.4-0.3-5.1-0.1
		C426.5,64.8,426.5,66.4,426.5,68.2z"/>
	<path d="M410.8,108.7c0-6.1,0-11.9,0-18c1.7,0,3.3,0,4.9,0s3.1,0,4.6,0.3c4.4,0.9,7.3,4.7,7.1,9c-0.2,4.6-3.5,8.3-8,8.6
		C416.6,108.9,413.8,108.7,410.8,108.7z M414.8,105.1c1.4,0,2.7,0.1,4,0c2.4-0.3,4.1-2.1,4.4-4.5c0.3-2.8-1-5-3.4-5.9
		c-1.6-0.6-3.3-0.3-4.9-0.3C414.8,98.1,414.8,101.5,414.8,105.1z"/>
	<path d="M504.8,77.5c0-6.1,0-12,0-18c0.5,0,0.9-0.1,1.3-0.1c1.9,0,3.8,0,5.7,0c1,0,2,0.1,3,0.4c4.1,1.1,6.7,4.6,6.7,8.7
		c-0.1,4.3-2.9,7.8-7.1,8.7c-0.9,0.2-1.8,0.3-2.6,0.3C509.5,77.6,507.3,77.5,504.8,77.5z M508.9,73.8c1.4,0,2.8,0.2,4.1,0
		c2.5-0.4,4.1-2.3,4.3-4.8c0.1-2.7-1.2-4.9-3.5-5.6c-1.6-0.4-3.2-0.4-4.8-0.1C508.9,66.8,508.9,70.3,508.9,73.8z"/>
	<path d="M334.5,61.8c-0.7,0.9-1.5,1.8-2.3,2.8c-0.5-0.3-1-0.7-1.4-0.9c-2.4-1.4-5.2-1.1-6.9,0.7c-1.8,1.9-2.1,5.2-0.6,7.4
		c1.8,2.7,5.2,2.9,7.6,1.6c0.3-0.1,0.5-0.6,0.6-0.9c0.1-0.2,0-0.6,0-0.8c0-0.3-0.1-0.6-0.1-1.1c-1.3,0-2.5,0-3.8,0
		c0-1.2,0-2.2,0-3.4c2.5,0,5,0,7.6,0c0,0.5,0.1,0.9,0.1,1.3c0,1.4-0.1,2.9,0,4.3c0.3,1.9-0.7,2.9-2.2,3.6c-2.9,1.4-5.8,1.8-8.9,0.8
		c-4.3-1.4-6.6-5.4-6.1-10.2c0.5-4.2,4.1-7.7,8.4-8c2.6-0.2,5.1,0.1,7.3,1.8c0.2,0.1,0.4,0.3,0.5,0.4
		C334.4,61.4,334.4,61.5,334.5,61.8z"/>
	<path d="M540.6,70.2c-2.8,0-5.5,0-8.3,0c0,1.3,0,2.4,0,3.7c3.2,0,6.3,0,9.6,0c0,1.3,0,2.3,0,3.5c-4.5,0-9,0-13.4,0
		c-0.4-1.2-0.5-15.3-0.1-17.9c4.4,0,8.8,0,13.4,0c0,1.1,0,2.1,0,3.4c-3.1,0-6.2,0-9.4,0c0,1.3,0,2.3,0,3.6c2.7,0,5.5,0,8.3,0
		C540.6,67.8,540.6,68.9,540.6,70.2z"/>
	<path d="M414,70.2c-2.8,0-5.5,0-8.3,0c0,1.3,0,2.4,0,3.7c3.1,0.2,6.3,0,9.6,0.1c0,1.1,0,2.2,0,3.4c-4.5,0-9,0-13.6,0
		c0-5.9,0-11.8,0-17.7c1.1-0.4,11.3-0.5,13.5-0.1c0,1,0,2,0,3.3c-3.1,0.1-6.3,0-9.5,0.1c0,1.2,0,2.3,0,3.5c2.7,0.1,5.4,0,8.3,0.1
		C414,67.8,414,68.9,414,70.2z"/>
	<path d="M466.5,101.5c0,1.4,0,2.5,0,3.8c3.2,0,6.4,0,9.7,0c0,1.3,0,2.3,0,3.4c-4.6,0-9.1,0-13.7,0c0-6,0-11.9,0-17.9
		c4.5,0,8.9,0,13.5,0c0,1.1,0,2.1,0,3.4c-3.1,0.3-6.2-0.1-9.5,0.2c0,1.2,0,2.2,0,3.5c2.8,0,5.5,0,8.4,0c0,1.2,0,2.3,0,3.6
		C472.1,101.5,469.3,101.5,466.5,101.5z"/>
	<path d="M527.1,90.8c0,1.2,0,2.3,0,3.5c-1.6,0-3.2,0-4.7,0c-1.6,0-3.1,0-4.8,0c0,1.2,0,2.3,0,3.5c2.7,0,5.4,0,8.2,0
		c0,1.3,0,2.3,0,3.6c-2.8,0-5.5,0-8.3,0c0,1.3,0,2.5,0,3.8c3.2,0,6.4,0,9.6,0c0,1.2,0,2.3,0,3.4c-4.5,0-9,0-13.6,0
		c0-5.9,0-11.9,0-17.9C518.1,90.8,522.5,90.8,527.1,90.8z"/>
	<path d="M360.1,90.7c1.2,0,2.4,0,3.6,0c0.1,0.4,0.2,0.8,0.2,1.1c0,3.2,0,6.4,0,9.5c-0.1,4.8-2.9,7.6-7.8,7.7c-0.6,0-1.2,0-1.8-0.1
		c-3.5-0.5-5.8-2.8-6-6.4c-0.2-3.9,0-7.8,0-11.8c1.3,0,2.5,0,4,0c0,0.7,0,1.4,0,2c0,2.6,0,5.1,0,7.7c0,0.5,0,1,0.1,1.5
		c0.3,2.2,1.7,3.4,3.9,3.4c2.1,0,3.6-1.3,3.7-3.5c0.1-1.8,0-3.7,0.1-5.5c0-1.7,0-3.5,0-5.2C360,91.1,360,91,360.1,90.7z"/>
	<path d="M593.2,77.4c-0.5-1.3-1.1-2.5-1.7-3.9c-2.5,0-5,0-7.6,0c-0.5,1.3-1.1,2.5-1.7,3.9c-1.3,0-2.5,0-4.1,0
		c2.6-6.1,5.1-12.1,7.7-18.1c1.2,0,2.4,0,3.8,0c2.5,5.9,5.1,11.9,7.7,18.1C595.9,77.4,594.7,77.4,593.2,77.4z M587.9,64.6
		c-0.1,0-0.3,0-0.4,0c-0.6,1.7-1.5,3.4-2,5.2c1.6,0,2.9,0,4.5,0C589.3,67.9,588.6,66.3,587.9,64.6z"/>
	<path d="M395.6,90.7c1.3,0,2.5,0,3.8,0c2.5,6,5.1,11.9,7.7,18.1c-1.5,0-2.8,0-4.2,0c-0.5-1.3-1.1-2.6-1.7-3.9c-2.5,0-5,0-7.6,0
		c-0.5,1.3-1.1,2.6-1.7,3.9c-1.3,0-2.6,0-4.1,0C390.5,102.6,393,96.7,395.6,90.7z M399.7,101.1c-0.7-1.9-1.3-3.6-2.3-5.5
		c-0.8,2-1.5,3.6-2.2,5.5C396.8,101.1,398.1,101.1,399.7,101.1z"/>
	<path d="M530.9,90.7c1.6,0,2.8-0.1,4,0c0.4,0,0.9,0.4,1.2,0.8c0.8,1.2,1.6,2.4,2.4,3.6c0.3,0.4,0.6,0.8,1,1.3
		c1.3-2,2.5-3.8,3.7-5.7c1.4,0,2.8,0,4.5,0c-0.9,1.7-2,3-2.9,4.4c-1,1.4-1.9,2.9-3,4.4c2,3,4,6,6.3,9.2c-1.6,0-2.9,0.1-4.2,0
		c-0.3,0-0.7-0.4-1-0.8c-0.8-1.2-1.6-2.4-2.4-3.6c-0.3-0.5-0.6-0.9-1-1.5c-0.4,0.5-0.7,0.8-0.9,1.2c-0.7,1-1.4,1.9-1.9,2.9
		c-0.7,1.6-1.9,2-3.5,1.8c-0.6-0.1-1.3,0-2.3,0c2.2-3.2,4.2-6.2,6.3-9.2C535,96.7,533.1,93.9,530.9,90.7z"/>
	<path d="M334.5,93.3c-0.8,1-1.6,1.8-2.4,2.8c-1.7-1.3-3.5-2.4-5.7-1.9c-1.3,0.3-2.3,0.9-3,1.9c-1.7,2.2-1.5,5.7,0.4,7.7
		c2.1,2.2,4.7,2.1,8.4-0.3c0.8,0.8,1.7,1.5,2.5,2.3c-2.9,4-9.9,4.4-13.6,1.1c-3.9-3.5-4.1-9.9-0.5-13.7
		C324.2,89.4,330.9,89.4,334.5,93.3z"/>
	<path d="M576.9,93.3c-0.8,1-1.6,1.8-2.4,2.8c-0.5-0.4-1-0.7-1.5-1c-2.7-1.6-5.8-1.1-7.4,1.3c-1.7,2.5-1.2,6.2,1.2,8
		c1.7,1.3,4.1,1.4,6.1,0.2c0.6-0.3,1.1-0.8,1.6-1.2c0.9,0.8,1.7,1.6,2.5,2.3c-2.8,4-9.8,4.5-13.6,1.1c-3.9-3.5-4.2-9.9-0.5-13.7
		C566.6,89.4,573.2,89.4,576.9,93.3z"/>
	<path d="M560.1,77.5c0-6.1,0-12,0-18c1.3,0,2.5,0,4,0c0,4.7,0,9.4,0,14.3c3.1,0,5.9,0,8.9,0c0,1.3,0,2.3,0,3.6
		C568.7,77.6,564.5,77.5,560.1,77.5z"/>
	<path d="M342.7,108.7c-1.3,0-2.5,0-3.8,0c0-6,0-11.9,0-17.9c1.3,0,2.5,0,3.8,0C342.7,96.8,342.7,102.6,342.7,108.7z"/>
	<path d="M393.7,77.5c-1.3,0-2.5,0-3.9,0c0-6,0-11.9,0-17.9c1.4,0,2.6,0,3.9,0C393.7,65.5,393.7,71.4,393.7,77.5z"/>
	<path d="M551.9,90.8c1.3,0,2.5,0,3.8,0c0,6,0,11.9,0,17.9c-1.3,0-2.5,0-3.8,0C551.9,102.7,551.9,96.8,551.9,90.8z"/>
	<path d="M518,89.4c1.1-1.8,2.1-3.2,3-4.7c1.1,0.5,2.2,0.9,3.3,1.4c-0.8,1.2-1.9,2.2-3,2.9C520.6,89.5,519.4,89.3,518,89.4z"/>
	<path class="st0" d="M371.7,73.9c0-1.3,0-2.5,0-3.8c1.9-0.2,3.8-0.2,5.7,0.1c1.2,0.2,1.7,0.9,1.7,1.9s-0.6,1.7-1.8,1.8
		C375.4,74,373.6,73.9,371.7,73.9z"/>
	<path class="st0" d="M371.7,66.8c0-1.4,0-2.5,0-3.8c1.6,0,3.3-0.2,4.9,0.1c1.1,0.2,1.5,0.8,1.4,1.8c0,0.9-0.5,1.6-1.5,1.7
		C375,66.7,373.4,66.7,371.7,66.8z"/>
	<path class="st0" d="M482.5,68.5c0,3.2-2.3,5.6-5.3,5.7c-3.1,0-5.5-2.5-5.5-5.7s2.3-5.6,5.3-5.6C480.2,62.8,482.5,65.2,482.5,68.5z
		"/>
	<path class="st0" d="M356.6,68.5c0,3.2-2.3,5.6-5.3,5.7c-3.1,0-5.5-2.5-5.5-5.7s2.3-5.6,5.3-5.6C354.3,62.8,356.6,65.2,356.6,68.5z
		"/>
	<path class="st0" d="M589.5,105.4c-3.1,0-5.5-2.5-5.5-5.7c0-3.1,2.4-5.6,5.4-5.7c3,0,5.5,2.6,5.5,5.7
		C594.9,103,592.5,105.4,589.5,105.4z"/>
	<path class="st0" d="M373.5,94.4c1.3,0,2.4-0.1,3.5,0c2.9,0.2,4.8,2.3,4.9,5.3s-1.7,5.2-4.7,5.4c-1.2,0.1-2.4,0-3.7,0
		C373.5,101.5,373.5,98,373.5,94.4z"/>
	<path class="st0" d="M445.1,105.1c0-3.6,0-7,0-10.7c1.6-0.1,3.2-0.3,4.8,0.2c2.5,0.8,3.8,2.9,3.6,5.7c-0.2,2.7-1.9,4.5-4.5,4.8
		C447.7,105.2,446.5,105.1,445.1,105.1z"/>
	<path class="st0" d="M426.5,68.2c0-1.8,0-3.4,0-5c1.8-0.2,3.5-0.3,5.1,0.1c1.1,0.2,1.8,1.2,1.8,2.3c0,1-0.5,2-1.6,2.3
		c-0.6,0.2-1.2,0.3-1.8,0.3C429,68.2,427.8,68.2,426.5,68.2z"/>
	<path class="st0" d="M414.8,105.1c0-3.6,0-7.1,0-10.7c1.7-0.1,3.3-0.3,4.9,0.3c2.4,0.8,3.7,3.1,3.4,5.9c-0.2,2.4-1.9,4.3-4.4,4.5
		C417.5,105.2,416.2,105.1,414.8,105.1z"/>
	<path class="st0" d="M508.9,73.8c0-3.5,0-7,0-10.6c1.6-0.3,3.2-0.3,4.8,0.1c2.3,0.7,3.7,2.9,3.5,5.6c-0.1,2.5-1.7,4.5-4.3,4.8
		C511.7,74,510.4,73.8,508.9,73.8z"/>
	<path class="st0" d="M587.9,64.6c0.7,1.7,1.4,3.3,2.1,5.2c-1.6,0-2.9,0-4.5,0c0.5-1.8,1.4-3.4,2-5.2
		C587.7,64.6,587.8,64.6,587.9,64.6z"/>
	<path class="st0" d="M399.7,101.1c-1.6,0-2.9,0-4.6,0c0.8-1.8,1.4-3.5,2.2-5.5C398.4,97.5,399,99.2,399.7,101.1z"/>
</g>
<g>
	<path class="st1" d="M208,84.7c0.1,0.2,0.1,0.3,0.1,0.4c2.9,3.7,5.8,7.4,8.7,11.1c0.7,0.9,1.1,0.8,1.9,0c0.3-0.3,0.6-0.7,0.8-1
		c4-5.3,8-10.6,12.1-15.8c7.9-10.2,15.8-20.5,23.8-30.7c0.3-0.4,0.6-0.8,1-1.1c2.3-2.2,6-1.2,6.9,1.8c0.5,1.6,0,2.9-1,4.1
		c-2.9,3.6-5.8,7.1-8.7,10.7c-1.3,1.6-1.3,2.2,0,3.8c2.5,3.1,5,6.2,7.4,9.4c0.3,0.3,0.5,0.7,0.8,1.3c8.6-11,17-21.6,25.3-32.3
		c-0.3-0.5-0.5-0.7-0.7-1c-3.6-4.8-7.2-9.7-10.7-14.5c-1.1-1.6-2.6-2.3-4.5-2.2c-4.6,0.1-9.2,0.1-13.8,0c-3.8-0.1-6.7,1.3-9,4.3
		c-13.1,16.9-26.3,33.8-39.4,50.7C208.6,83.9,208.3,84.3,208,84.7z"/>
	<path class="st1" d="M203.2,91.3c-8.5,10.9-16.9,21.6-25.3,32.3c0.6,0.8,1.1,1.4,1.5,2c3.5,4.6,7,9.1,10.4,13.7
		c0.8,1.1,1.6,1.5,3,1.5c6.1-0.1,12.3-0.1,18.4,0c1.6,0,2.6-0.5,3.6-1.8c13.7-17.7,27.4-35.5,41.1-53.2c0.2-0.3,0.4-0.6,0.6-1
		c-0.1-0.2-0.2-0.4-0.4-0.6c-2.6-3.3-5.1-6.5-7.7-9.8c-0.2-0.3-0.4-0.5-0.7-0.7c-0.5-0.5-1.1-0.5-1.6,0c-0.3,0.3-0.6,0.6-0.9,1
		c-1.8,2.3-3.5,4.7-5.3,7c-9.9,12.9-19.4,26-29.6,38.5c-0.6,0.7-1.1,1.4-1.7,2c-2.2,2-5.8,1.1-6.8-1.7c-0.6-1.6-0.1-3,1-4.3
		c2.8-3.4,5.5-6.8,8.3-10.2c1.5-1.8,1.5-2.7,0-4.6c-1.2-1.5-2.4-3-3.6-4.6C206.3,95.1,204.8,93.3,203.2,91.3z"/>
	<path class="st1" d="M247.1,110.3c-3.3,4.2-6.5,8.2-9.7,12.2c0.2,0.3,0.2,0.4,0.3,0.5c4.4,5.7,8.9,11.3,13.3,17
		c0.6,0.8,1.3,0.9,2.2,0.9c6.5,0,13.1,0,19.6,0c1,0,1.7-0.3,2.4-1.2c3.8-5,7.6-10,11.4-15.1c0.3-0.3,0.5-0.7,0.7-1
		c-1.4-2.3-24.5-31.4-25.5-32.2c-3.1,4.1-6.2,8.1-9.3,12.2c0.4,0.6,0.7,1,1.1,1.4c2.9,3.6,5.7,7.2,8.6,10.8c0.3,0.4,0.7,0.9,1,1.3
		c1.4,2.6-0.2,5.7-3.2,6.1c-1.8,0.2-3.1-0.5-4.1-1.9c-2.5-3.3-5-6.5-7.5-9.7C247.9,111.2,247.5,110.8,247.1,110.3z"/>
	<path class="st1" d="M178,46.1c8.3,10.7,16.6,21.4,24.9,32.1c0.3-0.3,0.4-0.4,0.5-0.5c2.7-3.6,5.4-7.1,8.2-10.7
		c0.6-0.8,0.5-1.3-0.1-2c-1.1-1.4-2.1-2.8-3.2-4.3c-1.9-2.6-3.9-5.1-5.7-7.7c-1.4-2-1-4.4,0.8-5.8c1.9-1.4,4.3-1.1,5.9,0.8
		c0.3,0.3,0.5,0.7,0.8,1.1c2.1,2.9,4.3,5.8,6.4,8.7c0.3,0.5,0.7,0.9,1.2,1.5c3.3-4.2,6.4-8.3,9.5-12.3c-0.2-0.3-0.2-0.4-0.3-0.6
		c-3.5-4.7-7-9.4-10.5-14.1c-2-2.6-4.7-3.8-7.9-3.8c-4.8,0-9.6,0.1-14.4,0c-2,0-3.3,0.7-4.5,2.3c-3.5,4.7-7.1,9.3-10.7,14
		C178.6,45.2,178.3,45.6,178,46.1z"/>
	<path class="st1" d="M247.1,110.3c0.5,0.6,0.8,1,1.2,1.4c2.5,3.2,5,6.5,7.5,9.7c1.1,1.4,2.4,2.1,4.1,1.9c2.9-0.4,4.6-3.5,3.2-6.1
		c-0.3-0.5-0.6-0.9-1-1.3c-2.9-3.6-5.7-7.2-8.6-10.8c-0.3-0.4-0.7-0.9-1.1-1.4c3.1-4.1,6.2-8.2,9.3-12.2c1,0.8,24.1,29.8,25.5,32.2
		c-0.2,0.3-0.4,0.7-0.7,1c-3.8,5-7.7,10-11.4,15.1c-0.6,0.9-1.3,1.2-2.4,1.2c-6.5,0-13.1,0-19.6,0c-0.9,0-1.6-0.2-2.2-0.9
		c-4.4-5.7-8.9-11.3-13.3-17c-0.1-0.1-0.1-0.2-0.3-0.5C240.6,118.5,243.8,114.4,247.1,110.3z"/>
	<path class="st1" d="M232.7,141.4c-5.6,0-10.1,4.5-10.2,10.1c0,5.5,4.5,10,10,10.1c5.6,0.1,10.2-4.5,10.2-10
		C242.8,145.9,238.3,141.4,232.7,141.4z M232.7,157c-3,0-5.6-2.5-5.6-5.6s2.5-5.6,5.6-5.5c3.1,0,5.6,2.5,5.5,5.6
		C238.1,154.5,235.7,157,232.7,157z"/>
	<path class="st1" d="M232.8,8c-5.6-0.1-10.2,4.4-10.3,10s4.4,10.1,10.1,10.2c5.6,0,10.2-4.4,10.2-10C242.8,12.7,238.3,8.1,232.8,8z
		 M232.7,23.6c-3.1,0-5.6-2.5-5.6-5.6s2.6-5.6,5.6-5.6c3,0.1,5.4,2.5,5.5,5.5C238.2,21.1,235.8,23.6,232.7,23.6z"/>
	<path class="st1" d="M287.7,74.7c-5.6,0-10.1,4.5-10.1,10.1s4.6,10,10.2,10c5.5,0,10-4.5,10-10.1C297.8,79.2,293.3,74.7,287.7,74.7
		z M287.7,90.3c-3,0-5.6-2.7-5.5-5.7s2.6-5.5,5.6-5.5c3.1,0,5.6,2.5,5.6,5.6C293.2,87.9,290.8,90.4,287.7,90.3z"/>
	<path class="st1" d="M178.2,74.7c-5.6,0-10.2,4.5-10.2,10.1c0,5.5,4.5,10,10,10.1c5.7,0,10.2-4.4,10.2-10
		C188.4,79.3,183.8,74.7,178.2,74.7z M178.2,90.3c-3.1,0-5.6-2.5-5.6-5.6c0-3,2.6-5.6,5.6-5.6c3.1,0,5.6,2.6,5.5,5.7
		C183.7,87.9,181.2,90.3,178.2,90.3z"/>
</g>
<g id="bji5pc.tif">
	<g>
		<g>
			<path class="st2" d="M69.4,160c-0.2-0.3-0.4-0.5-0.5-0.7c-2.3-3.6-5.4-6.1-9.5-7.3c-5.5-1.6-10.9-3.2-16.4-4.8
				c-4.6-1.3-9.2-2.7-13.5-4.8c-6.7-3.2-11.1-8.5-13.8-15.2c-1.8-4.4-2.6-9-2.6-13.7c0-27.8,0-55.6,0-83.4c0-1.3,0-1.3,1.3-1.3
				c36.7,0,73.5,0,110.2,0c1.3,0,1.3,0,1.3,1.3c0,28.4,0.1,56.8-0.1,85.2c-0.1,9.3-3.7,17.4-10.9,23.5c-3.4,2.9-7.6,4.8-11.9,6.1
				c-5.3,1.6-10.7,3-16.1,4.6c-2.8,0.8-5.6,1.8-8.4,2.7c-3.4,1.1-6,3.4-8.1,6.3c-0.3,0.4-0.6,0.8-0.9,1.2
				C69.6,159.9,69.6,159.9,69.4,160z M106.5,96.4c0.4,0,0.7,0,1,0c1.5,0,2.9,0,4.4,0c1.2,0,1.2,0,1.2-1.2c0-17.4,0-34.7,0-52.1
				c0-1.3,0-1.3-1.2-1.3c-28.2,0-56.4,0-84.5,0c-1.3,0-1.3,0-1.3,1.4c0,17.3,0,34.6,0,51.9c0,0.2,0,0.4,0,0.6c0,0.5,0.2,0.7,0.7,0.7
				c1.8,0,3.5,0,5.3,0c0.2,0,0.3-0.1,0.5-0.1c-0.1-0.4-0.2-0.7-0.3-1c-0.4-1.9-0.9-3.9-1.2-5.8c-0.2-1,0.3-1.8,1.2-2.3
				c1-0.5,2-1.1,3-1.7c-0.8-0.5-1.5-1-2.3-1.5c-1.8-1.1-2.1-2.6-1.4-4.4c0.5-1.3,0.6-2.5,0.3-3.8c-0.6-2.9,0.3-3.9,3.3-3.6
				c1.4,0.2,2.2,0.9,2.2,2.3c0,1.2-0.2,2.5-0.4,3.7c-0.1,0.8-0.2,1.6-0.2,2.4c0,0.2,0.3,0.5,0.5,0.7c0.2-0.2,0.4-0.4,0.6-0.6
				c0.1-0.1,0.1-0.3,0.1-0.4c0.3-1.8,0.8-3.5,2.4-4.7c-0.5-0.4-0.9-0.8-1.3-1.1c-2.7-2.4-4.2-5.2-2.9-8.9c0.7-2.1,1.6-4.1,0.6-6.7
				c1.1,0.2,1.9,0.2,2.6,0.6c2.8,1.3,5.4,2.9,8.5,3.6c0.2,0,0.4,0.3,0.4,0.4c0,1.4,0,2.7,0,4c-0.9,0.3-1.6,0.6-2.4,0.8
				c0,0.1,0,0.2,0.1,0.3c0.3,0,0.5,0.1,0.8,0.1c1.1,0,2.2,0,3.3,0c0.7,0,1.3,0.2,1.7,0.8c0.4,0.6,0.8,0.8,1.5,0.6
				c0.7-0.2,0.8-0.6,0.9-1.2c0.2-1.2,1.1-2,2.3-2c0.8,0,1.6,0.2,2.5,0.4c0-0.9-0.1-1.8,0-2.8c0.3-2.2-0.3-4.1-1.9-5.7
				c-0.3-0.3-0.6-0.7-0.6-1.1c0-2.8,0-5.6,0-8.3c0-0.2,0.3-0.5,0.4-0.5c2,0,4,0,6,0c0,1.3,0,2.4,0,3.6c0.9,0,1.7,0,2.7,0
				c0-1.3,0-2.4,0-3.7c2.2,0,4.4,0,6.5,0c0.2,0,0.4,0.3,0.5,0.6c0.1,0.2,0,0.5,0,0.8c0,2.5,0,2.4,2.5,2.4c0.6,0,0.9-0.2,0.8-0.8
				c0-0.5,0-0.9,0-1.4c0-1.7-0.2-1.5,1.5-1.5c1.3,0,2.5,0,3.8,0c0.3,0,0.6,0,1,0.1c0,2.8,0,5.5,0,8.2c0,0.7-0.1,1.3-0.7,1.7
				c-1.9,1.6-2.6,3.5-2.2,6c0.1,1,0,2,0,3.1c0.4-0.2,0.5-0.4,0.7-0.5c1.9-1.2,3.9-0.3,4.4,1.8c0.1,0.4,0.5,0.8,0.9,0.9
				s1.1-0.1,1.3-0.4c0.6-0.8,1.3-1,2.2-1c1.1,0,2.1,0,3.2,0c0.2,0,0.5-0.1,0.9-0.1c-0.4-0.3-0.6-0.5-0.8-0.5
				c-1.9-0.1-1.8-1.4-1.7-2.7c0-0.2,0-0.4,0-0.5c0-1.6,0-1.5,1.5-2.1c2.4-1,4.8-2.1,7.1-3.2c0.9-0.4,1.7-0.7,2.8-0.4
				c-1,2.2,0,4.3,0.6,6.4c0.3,1.1,0.5,2.2,0.4,3.4c-0.1,2.3-1.6,3.9-3.2,5.5c-0.4,0.4-0.9,0.8-1.4,1.3c1.6,1.1,2.1,2.8,2.4,4.5
				c0,0.3,0.1,0.6,0.2,0.8c0.1,0.2,0.3,0.4,0.5,0.4s0.5-0.2,0.5-0.4c0.1-0.5,0.1-1,0.1-1.5c-0.2-1.5-0.5-3.1-0.6-4.6
				c-0.1-1.9,1.2-2.8,3.7-2.6c1.6,0.1,2.4,1,2,2.8s-0.3,3.5,0.3,5.3c0.5,1.5,0,2.6-1.4,3.5c-0.8,0.6-1.6,1.1-2.5,1.6
				c1.1,0.6,2.1,1.2,3.1,1.7c0.8,0.4,1.2,1.1,1.1,2c-0.1,1-0.2,2-0.4,2.9C107.3,93.7,106.9,95,106.5,96.4z M85.7,96.3
				c-0.3-0.4-0.7-0.9-0.8-1.4c-0.5-2.2,0.8-3.5,3-3.3c0.5,0.1,1.1,0.1,1.5,0c0.7-0.2,0.8-0.6,0.2-1c-0.6-0.4-1.3-0.7-2-1.2
				c-1.6-1.1-2.1-2.8-1.2-4.6c0.4-0.7,1-1.4,1.5-2c0.4-0.4,0.8-0.8,1.3-1.2c0-0.1-0.1-0.2-0.1-0.3c-0.4,0.1-0.8,0.1-1.2,0.3
				c-1.2,0.6-2.4,1.3-3.7,1.9c-1.6,0.8-2.9,0.6-4-0.7c-0.2-0.2-0.3-0.5-0.5-0.7c-0.2,0.3-0.3,0.3-0.3,0.3c0,4.5,0,9.1,0,13.6
				c0,0.2,0.4,0.5,0.6,0.5c0.7,0.1,1.3,0,2,0c0,2.9,0,5.7,0,8.5c-0.2,0-0.3,0.1-0.5,0.1c-1.8,0.1-2.2,0.6-2.2,2.3c0,1.1,0,2.1,0,3.2
				c0,2.8,0,5.6,0,8.4c0,0.7-0.2,1-0.9,0.9c-0.4,0-0.8,0-1.2,0.1c0,0.2,0,0.4,0,0.5c1,5.8,2,11.6,2.9,17.4c0.1,0.5,0.3,0.6,0.7,0.6
				c1.6-0.3,3.2-0.5,4.8-0.8c5.8-1.2,11.3-3.1,16.3-6.5c4-2.7,7.3-6,9.3-10.5c0.1-0.3,0.2-0.6,0.4-1c-1.8,0-3.4,0-5.1,0
				c0-0.4,0-0.7,0-1.1c0-3.2,0-6.3,0-9.5c0-1.4-0.5-2.6-1.9-3.3c-2.9-1.5-5.9,0.2-5.9,3.5c0,3.2,0,6.3,0,9.5c0,0.7-0.2,1-0.9,0.9
				c-3,0-6,0-9,0c-0.3,0-0.6,0-0.9-0.1c0-3.7,0-7.3,0-10.9c0-0.6,0-1.3-0.1-1.9c-0.2-1.3-0.5-1.7-1.8-1.8c-0.5-0.1-0.8-0.2-0.8-0.8
				c0-2.3,0-4.7,0-7C85.3,96.9,85.6,96.6,85.7,96.3z M61.3,120c-0.3-0.1-0.4-0.1-0.5-0.1c-1.3,0-1.3,0.1-1.3-1.4c0-3.7,0-7.4,0-11.1
				c0-1.6-0.6-2.2-2.1-2.2c-0.7,0-0.8-0.3-0.8-0.9c0-2,0-4.1,0-6.1c0-1.8-0.2-1.6,1.6-1.6c0.7,0,1-0.2,1-0.9c0-4.1,0-8.2,0-12.4
				c0-0.2,0-0.5-0.1-0.8c-2.3,1.9-2.9,1.9-5.5,0.5c-1-0.5-2-1.1-3-1.6c-0.2-0.1-0.5,0-0.8,0c0.1,0.2,0.2,0.5,0.3,0.7
				c0.8,1,1.7,1.9,2.3,2.9c0.9,1.6,0.4,3.2-1.1,4.3c-0.6,0.4-1.3,0.7-1.9,1.1c-0.2,0.2-0.4,0.5-0.6,0.7c0.3,0.2,0.6,0.5,0.9,0.5
				c0.6,0,1.2-0.1,1.7-0.1c1.6-0.1,2.4,0.7,2.6,2.3c0.1,1-0.1,1.8-0.8,2.3c0.2,0.5,0.4,0.8,0.4,1.2c0,2.2,0,4.4,0,6.6
				c0,0.7-0.1,1-0.9,1.1c-1.1,0.1-1.5,0.5-1.6,1.6c-0.1,0.5-0.1,0.9-0.1,1.4c0,3.6,0,7.1,0,10.7c0,0.8-0.2,1-1,1c-3,0-6,0-8.9,0
				c-0.8,0-1-0.2-1-1c0-3.2,0-6.4,0-9.6c0-1.4-0.5-2.6-1.9-3.3c-2.9-1.4-5.9,0.5-5.9,3.7c0,3.1,0,6.1,0,9.2c0,0.3,0,0.7-0.1,1.1
				c-1.7,0-3.3,0-5,0c0.1,0.4,0.2,0.6,0.3,0.8c0.1,0.2,0.2,0.4,0.3,0.6c2.1,4.3,5.4,7.5,9.3,10.1c5.3,3.4,11.1,5.4,17.2,6.6
				c1.1,0.2,2.3,0.4,3.5,0.6C59,132.2,60.2,126.1,61.3,120z M71,54.5c0-0.5,0-0.9,0-1.2c0-2.6,0-2.6-2.7-2.5c-0.6,0-0.8,0.2-0.7,0.8
				c0,0.7,0,1.4,0,2.1c0.1,0.7-0.2,1-0.9,1c-1.2-0.1-2.4,0-3.6,0c-2.2,0-1.9,0.3-1.9-1.8c0-2,0-2-2.1-1.9c-0.5,0-0.7,0.2-0.6,0.7
				c0,1,0.1,2.1,0,3.1c-0.3,2.1,0.3,4,1.8,5.5c0.5,0.5,0.6,1.2,0.6,1.9c0,10.8,0,21.6,0,32.4c0,2.1,0,2.1,2.1,2.1
				c0.7,0,0.9-0.3,0.9-0.9c0-3.2,0-6.4,0-9.6c0-0.5,0-1,0.1-1.5c0.7-4.1,5.1-6,8.5-3.7c1.7,1.2,2.6,2.9,2.6,5c0,3.2,0,6.5,0,9.7
				c0,0.3,0.1,0.8,0.2,0.9c0.7,0.1,1.4,0.1,2.1,0c0.1,0,0.2-0.7,0.3-1.1c0-10.2,0.1-20.5,0-30.7c0-2.6,0.3-4.7,2.4-6.4
				c0.3-0.2,0.5-0.6,0.5-1c0-1.9,0-3.8,0-5.7c0-0.2-0.2-0.5-0.4-0.6c-1.7-0.4-2.1-0.1-2.1,1.6c0,2,0,2-2,2
				C74.4,54.5,72.7,54.5,71,54.5z M78.5,138.8c0-0.5-0.1-1-0.1-1.3c-0.4-2.6-0.9-5.1-1.3-7.7c-1.3-8-2.6-15.9-3.9-23.9
				c-0.1-0.6-0.4-0.8-0.9-0.8c-1.3,0-2.6,0-3.9,0c-2.3,0-2.3,0-2.7,2.1c0,0.1-0.1,0.3-0.1,0.4c-1.9,9.9-3.7,19.9-5.6,29.8
				c-0.2,1.2-0.2,1.2,1,1.3c4.1,0.1,8.2,0.3,12.3,0.3C74.9,139.1,76.6,138.9,78.5,138.8z M108.4,117.8c1.2,0,2.3,0,3.4,0
				c0.2,0,0.6-0.4,0.7-0.6c0.2-1.3,0.5-2.6,0.5-3.9c0.1-4.6,0-9.3,0-13.9c0-0.9-0.2-1.1-1.1-1.1c-5.5,0-10.9,0-16.4,0
				c-0.5,0-1,0.1-1.6,0.1c-2.1,0-4.1-0.1-6.2-0.1c-0.5,0-0.7,0.3-0.7,0.8c0,1.2,0,2.4,0,3.6c0,0.3,0.3,0.6,0.6,0.8
				c0.5,0.5,1.2,0.8,1.4,1.3c0.4,0.8,0.6,1.8,0.6,2.7c0.1,3.2,0,6.3,0,9.5c0,0.6,0.2,0.9,0.9,0.9c1.9,0,3.7,0,5.6,0
				c0.7,0,0.9-0.2,0.8-0.9c0-2.7,0-5.4,0-8.1c0-2.9,1.6-4.9,4.5-5.3c4-0.5,6.9,1.5,6.9,5.8c0,1.9,0,3.9,0,5.8
				C108.4,116,108.4,116.8,108.4,117.8z M35.3,98.3c-2.7,0-5.5,0-8.2,0c-0.8,0-1.1,0.2-1.1,1.1c0,4.7,0,9.4,0,14.1
				c0,1.2,0.3,2.4,0.4,3.6c0.1,0.5,0.3,0.8,0.9,0.7c0.8-0.1,1.6-0.1,2.4,0c0.7,0,0.9-0.2,0.9-0.9c0-2.7,0-5.3,0-8
				c0-1.8,0.6-3.4,2.2-4.4c2.1-1.3,4.4-1.4,6.6-0.3c2,1,2.6,2.9,2.6,5.1c0,2.5,0,5,0,7.5c0,0.7,0.2,1,1,1c1.7-0.1,3.4,0,5.2,0
				c1.2,0,1.2,0,1.2-1.1c0-3.2,0-6.4,0-9.6c0-1.6,0.5-3,2.2-3.7c0.2-0.1,0.4-0.5,0.4-0.8c0-1.1,0-2.2,0-3.3c0-0.7-0.2-1-1-0.9
				c-2.7,0-5.4,0-8,0C40.3,98.3,37.8,98.3,35.3,98.3z M99.6,61.7c-0.3,0.1-0.6,0.3-0.9,0.4c-1.8,0.8-3.5,1.7-5.4,2.4
				c-0.9,0.3-1,0.8-0.8,1.5c0.1,0.3,0.5,0.5,0.9,0.7c1.2,0.6,1.7,1.6,1.5,2.7c-0.2,0.8-1,1.3-2.3,1.4c-1.1,0-2.2,0-3.2,0
				c-0.4,0-0.8,0.3-1.2,0.5c-0.6,0.3-1.2,0.8-1.9,0.9c-1.9,0.2-2.9-0.6-3.4-2.5c0-0.1,0-0.3-0.1-0.3c-0.3-0.2-0.6-0.4-0.9-0.4
				c-0.2,0-0.5,0.4-0.6,0.6c-0.1,0.3-0.1,0.7-0.1,1c0,1.2,0.2,1.4,1.4,1.7c1.3,0.4,2.6,0.8,3.9,1.4c0.9,0.4,1.2,1.2,1.1,2.2
				c-0.3,2.1-3.3,3.9-5.2,3c-0.7-0.3-1.1,0.1-1.5,0.5c-0.5,0.5,0,0.8,0.2,1.1c0.2,0.2,0.4,0.5,0.6,0.7c0.8,0.8,1.3,0.9,2.3,0.4
				c0.6-0.3,1.3-0.8,1.9-1c1-0.4,1.9-0.9,2.9-1.1c1.2-0.2,2.1,0.3,2.5,1.4c0.4,1-0.2,1.7-0.8,2.3c-0.5,0.5-1.1,1-1.6,1.5
				c-1.3,1.6-1.1,2.7,0.7,3.6c0.6,0.3,1.2,0.7,1.7,1.2c1.2,1.3,0.9,3.1-0.8,3.7c-0.8,0.3-1.7,0.2-2.6,0.2c-0.4,0-1-0.2-1.1,0.5
				c-0.1,0.6,0.3,0.9,0.8,1c1.6,0.4,3.2,0.8,4.8,1.2c0.5,0.1,0.7,0,0.8-0.5c0.3-1.7,0.6-3.4,1-5.1c0.1-0.5-0.1-0.7-0.5-1
				c-0.6-0.3-1.1-0.6-1.6-1c-1-0.8-1.2-1.7-0.4-2.8c0.5-0.7,1.1-1.4,1.8-2.1c0.7-0.8,1.5-0.9,2.5-0.3c0.9,0.5,1.8,1.1,2.7,1.8
				c0.2,0.1,0.3,0.6,0.2,0.9c-0.3,1.1,0.1,1.8,1,2.4c0.5,0.3,1,0.7,1.5,1c1.4,0.9,1.2,1.6,0.6,3.3c-0.3,0.8-0.8,0.9-2.2,0.5
				c-0.7-0.2-1.1-0.1-1.3,0.7c-0.2,0.9,0.3,1,0.9,1.1c1.5,0.3,3.1,0.6,4.6,0.9c0.2,0,0.6-0.2,0.6-0.4c0.6-1.8,1.1-3.6,1.6-5.4
				c0.2-0.6,0-1.1-0.6-1.4c-1-0.5-2-1-2.9-1.6c-1.5-0.8-1.6-1.8-0.3-2.9c0.8-0.7,1.7-1.3,2.6-1.9c0.7-0.5,1-1.1,0.6-1.8
				c-0.8-1.8-0.8-3.6-0.4-5.5c0.2-0.9-0.1-1.2-1.1-1c-0.8,0.2-1,0.7-0.9,1.4c0.1,0.9,0.4,1.8,0.4,2.7c0.1,1.1,0.3,2.2,0.1,3.3
				c-0.1,1.2-1.3,1.9-2.7,1.9c-1,0-1.5-0.4-1.9-1.8c-0.2-0.6-0.3-1.3-0.4-1.9c-0.4-1.6-1.2-2.7-3-3.1c-0.5-0.1-1-0.3-1.6-0.4
				c0.5-0.3,0.7-0.5,1-0.7c1.4-1.1,2.8-2.1,4.1-3.3c1.5-1.4,2.2-3.2,1.7-5.2C100.7,65.3,100.1,63.6,99.6,61.7z M44.6,76.4
				c-0.7,0.2-1.1,0.3-1.6,0.4c-1.7,0.3-2.6,1.4-3,3c-0.1,0.7-0.3,1.3-0.4,2c-0.3,1.3-0.9,1.8-2,1.8c-1.3,0-2.5-0.8-2.7-2
				c-0.1-0.6-0.1-1.2-0.1-1.8c0.2-1.4,0.5-2.7,0.6-4.1c0-0.4-0.2-1-0.5-1.3c-0.3-0.2-1-0.2-1.4,0c-0.2,0.1-0.2,0.8-0.1,1.3
				c0.4,1.5,0.4,3.1-0.3,4.5c-0.1,0.2-0.2,0.5-0.2,0.8c-0.2,0.6,0,1.1,0.6,1.5c0.9,0.6,1.7,1.2,2.5,1.8c1.6,1.2,1.5,2.3-0.3,3.2
				c-0.9,0.5-1.8,1-2.7,1.5c-0.5,0.3-0.7,0.7-0.6,1.2c0.5,1.9,1.1,3.7,1.6,5.5c0.1,0.2,0.4,0.4,0.5,0.4c1.7-0.3,3.4-0.7,5.1-1.1
				c0.6-0.1,0.7-0.5,0.5-1c-0.2-0.6-0.4-0.9-1.2-0.8c-0.6,0.2-1.5,0.3-2-0.1c-1-0.7-0.9-2.9,0.1-3.6c0.6-0.4,1.2-0.8,1.7-1.2
				c0.8-0.6,1.3-1.3,0.9-2.4c-0.1-0.2,0-0.7,0.2-0.8c0.9-0.7,1.9-1.3,2.9-1.8c0.8-0.4,1.6-0.4,2.3,0.3c0.7,0.7,1.4,1.5,1.9,2.3
				c0.7,0.9,0.5,1.8-0.4,2.6c-0.5,0.4-1,0.7-1.5,1c-0.7,0.3-0.8,0.7-0.6,1.4c0.3,1.1,0.5,2.2,0.7,3.3c0.4,2.1,0.4,2.1,2.4,1.6
				c1.2-0.3,2.4-0.6,3.6-0.9c0.5-0.1,0.9-0.4,0.8-1c-0.1-0.7-0.6-0.5-1-0.5c-0.6,0-1.1,0.1-1.7,0.1c-1.3-0.1-2.2-0.8-2.5-1.8
				s0.1-1.9,1.2-2.7c0.5-0.4,1.2-0.6,1.7-1c1.1-0.7,1.3-1.5,0.6-2.5c-0.6-0.9-1.4-1.7-2.2-2.5c-0.6-0.6-1.1-1.3-0.7-2.2
				c0.4-0.9,1.4-1.5,2.4-1.4c0.7,0.1,1.5,0.4,2.2,0.7c1,0.5,2,1,3,1.6c0.7,0.4,1.3,0.3,1.8-0.3c0.3-0.3,0.6-0.6,0.9-1
				c0.5-0.5,0.3-0.9-0.2-1.3c-0.4-0.4-0.8-0.5-1.3-0.2c-0.2,0.1-0.6,0.3-0.8,0.2c-1.1-0.4-2.3-0.7-3.2-1.3c-1.7-1.2-1.5-3.5,0.4-4.4
				c1.2-0.5,2.5-0.9,3.7-1.2c0.7-0.2,1.1-0.6,1.1-1.3c0-0.5,0.1-1-0.1-1.5c0.4,0,0-0.4-0.2-0.4c-0.7-0.2-0.9,0.5-0.9,1
				c-0.1,1.3-1,1.8-2.1,2.1c-1.2,0.3-2.3,0.3-3.2-0.8c-0.2-0.3-0.7-0.5-1.1-0.5c-1.3-0.1-2.5,0-3.8-0.1c-0.8,0-1.5-0.4-1.8-1.2
				c-0.3-0.9,0-1.7,0.7-2.3c0.3-0.2,0.6-0.5,1-0.6c0.7-0.2,0.7-0.7,0.7-1.3c0-0.6-0.5-0.6-0.9-0.8c-1.7-0.7-3.4-1.5-5-2.2
				c-0.4-0.2-0.8-0.4-1.2-0.6c-0.5,1.7-0.9,3.2-1.4,4.8c-0.6,2-0.2,3.9,1.2,5.4c1,1.1,2.1,2,3.2,2.9C43,75.3,43.7,75.8,44.6,76.4z
				 M77,118c0.1,0,0.2,0,0.3,0.1c0.1-0.2,0.2-0.4,0.2-0.5c0-0.3,0-0.6,0-0.9c0-3.4,0-6.8,0.1-10.2c0-1.3,0.8-2.3,2.1-2.8
				c0.5-0.2,0.6-0.5,0.6-1c0-1.1,0-2.2,0-3.2c0-0.8-0.2-1-1-1c-4.9,0-9.8,0-14.6,0c-1.9,0-3.7,0-5.6,0c-0.6,0-0.8,0.2-0.8,0.8
				c0,1.2,0,2.3,0,3.5c0,0.3,0.2,0.7,0.4,0.8c2,0.7,2.6,2.2,2.6,4.2c0,3.1,0,6.3,0,9.4c0,0.3,0,0.6,0.1,0.9c0.3-0.2,0.4-0.4,0.4-0.6
				c0.8-4.3,1.7-8.7,2.4-13c0.1-0.7,0.4-0.9,1.1-0.9c2.8,0,5.6,0,8.3,0c0.7,0,1,0.3,1.1,0.9c0.5,3.2,1,6.3,1.5,9.5
				C76.5,115.2,76.7,116.6,77,118z M65.9,90.7L65.9,90.7c-0.1,1.6-0.1,3.2-0.1,4.8c0,0.8,0.2,1,1,1c1.9-0.1,3.8,0,5.7,0
				c0.7,0,1-0.2,1-1c0-3.2,0-6.4,0-9.6c0-0.4-0.1-0.8-0.2-1.2c-0.4-1.8-2.1-3.2-3.9-3.1c-1.7,0-3.2,1.3-3.3,3.2
				C65.8,86.8,65.9,88.7,65.9,90.7z M114,133.6c-0.3-0.1-0.4-0.1-0.5-0.1c-3.8,0.2-7.6,0.5-11.3,1.8c-1.1,0.4-2.1,1-3,1.7
				c-1.1,0.9-1.3,2.2-0.7,3.6c0.6,1.3,1.5,2,3,1.8c1-0.1,2.1-0.4,3-0.9C108.2,139.6,111.1,136.7,114,133.6z M19.6,94.8
				c-0.2,0.3-0.3,0.4-0.3,0.5c-0.8,2.5-1.7,4.9-2.5,7.5c-0.6,2.1-1,4.2-0.5,6.4c0.3,1.7,1.4,2.6,3,2.7s2.8-0.8,3.3-2.4
				c0.2-0.6,0.3-1.3,0.3-1.9C22.7,103.1,21.2,99,19.6,94.8z M119.8,57.1c-0.1,0-0.2,0-0.3,0c-1.2,2.8-2.3,5.7-2.9,8.8
				c-0.4,1.8-0.7,3.6-0.3,5.5c0.4,1.7,1.4,2.6,3,2.6s2.8-0.9,3.2-2.5c0.2-0.6,0.3-1.3,0.2-1.9c-0.3-2.2-0.6-4.5-1.1-6.7
				C121.3,61,120.4,59.1,119.8,57.1z M25,133.4c0.2,0.3,0.2,0.4,0.3,0.5c2.2,2,4.3,4,6.6,5.9c1.5,1.2,3.2,2.2,5.1,2.5
				c1.3,0.2,2.5-0.3,3.2-1.4c0.8-1.2,0.9-2.7-0.1-3.6c-0.9-0.9-2-1.6-3.2-2.1C33.1,133.8,29.1,133.6,25,133.4z M19.6,56.9
				c-0.2,0.4-0.3,0.5-0.4,0.7c-0.8,2.5-1.7,4.9-2.4,7.4c-0.6,2.1-1,4.2-0.5,6.4c0.3,1.7,1.4,2.6,3,2.7s2.8-0.8,3.3-2.4
				c0.2-0.6,0.2-1.3,0.3-1.9c0.1-2.6-0.6-5-1.3-7.5C20.9,60.5,20.2,58.8,19.6,56.9z M91.2,34.8c0,0.1,0,0.2,0,0.3
				c0.2,0.1,0.4,0.2,0.6,0.3c1.8,0.7,3.7,1.4,5.5,2c2.4,0.7,4.8,1.3,7.3,1.1c2.2-0.2,3.5-1.4,3.4-3.5c0-1.6-1.1-2.6-2.8-3
				c-2.2-0.5-4.3-0.1-6.3,0.5C96.3,33.2,93.8,34,91.2,34.8z M119.7,94.8c-0.2,0.3-0.3,0.4-0.3,0.5c-0.8,2.5-1.8,4.9-2.5,7.5
				c-0.6,2.1-1,4.3-0.5,6.5c0.4,1.7,1.4,2.6,3.1,2.6c1.6,0,2.8-0.9,3.2-2.5c0.2-0.6,0.2-1.3,0.3-2c0-2.8-0.7-5.5-1.6-8.1
				C120.8,97.8,120.3,96.4,119.7,94.8z M78.8,145.8c-0.4-0.2-0.5-0.3-0.7-0.4c-2-0.7-4.1-1.5-6.1-2.1c-2.3-0.7-4.6-1-7-0.8
				c-1.9,0.2-3.2,1.5-3.2,3.2s1,2.9,2.8,3.2c0.8,0.1,1.6,0.2,2.4,0.1C71,148.9,74.8,147.4,78.8,145.8z M29.5,34.8c0,0.1,0,0.2,0,0.3
				c0.2,0.1,0.5,0.3,0.7,0.4c2.4,0.8,4.7,1.7,7.1,2.3c1.8,0.4,3.8,0.6,5.7,0.6c2,0,3.2-1.3,3.3-3.1s-1-3-3-3.4
				c-2.1-0.4-4.2,0-6.2,0.5C34.6,33.2,32,34,29.5,34.8z M60.2,35c0.4,0.2,0.6,0.3,0.8,0.4c1.8,0.7,3.7,1.4,5.5,2
				c2.3,0.7,4.7,1.3,7.2,1c1.4-0.1,2.7-0.5,3.2-2c0.8-2.1-0.3-3.9-2.5-4.4c-1.8-0.4-3.7-0.1-5.5,0.2C66,32.8,63.2,33.8,60.2,35z
				 M100.8,91.2c-0.8-0.5-1.3-0.8-1.8-1.1c-1.2-0.8-2.1-1.8-2-3.4c0-1-1-1-1.6-1.5c-0.6-0.4-0.8,0.2-1.1,0.5
				c-1.2,1.2-1.2,1.3,0.2,2.1c2.1,1.2,2.1,1.2,1.6,3.7c-0.3,1.6-0.7,3.2-1,4.9c0.8,0,1.5,0,2.4,0C97.1,96.1,97,96,97,95.8
				c-0.7-1.2-0.4-2.4,0.3-3.6c0.6-1,1.5-1.2,2.6-0.9C100,91.5,100.3,91.3,100.8,91.2z M44,96.4c-0.4-1.8-0.7-3.4-1-5.1
				c-0.5-2.8-1-2,1.5-3.5c1.5-0.9,1.6-0.9,0.2-2.2c-0.3-0.2-0.8-0.5-1.1-0.4c-0.8,0.4-1.9,0.7-1.6,2c0,0.1,0,0.2-0.1,0.3
				c-0.3,1.7-1.7,2.3-3,3.1c-0.2,0.1-0.3,0.3-0.5,0.5c0.2,0.1,0.5,0.2,0.7,0.2c1.6-0.2,2.4,0.2,3,1.8c0.4,1.1,0.2,2.2-0.5,3.2
				C42.5,96.4,43.2,96.4,44,96.4z M79.6,78c1-0.7,1.9-1.1,3-0.8c0.5,0.1,1.2,0.1,1.7-0.1c0.7-0.2,1.3-0.5,1.3-1.4
				c0-0.8-0.8-0.7-1.3-0.9c-1.5-0.6-3.4-0.4-4.7-2C79.6,74.6,79.6,76.2,79.6,78z M59,77.8c0-1.6,0-3,0-4.3c-0.9,0.3-1.7,0.6-2.6,0.8
				c-0.8,0.3-1.7,0.5-2.5,0.7c-0.7,0.2-0.8,0.7-0.4,1.3c0.4,0.6,1.8,1.2,2.5,1C57,76.9,58,76.9,59,77.8z"/>
			<path class="st2" d="M108.8,136.1c-1.9,1.6-3.8,3.3-6.2,4.2c-0.3,0.1-0.7,0.2-1.1,0.3c-0.6,0.1-1-0.2-1.2-0.7
				c-0.3-0.6-0.2-1.1,0.3-1.4c0.9-0.5,1.7-1.1,2.7-1.4c1.8-0.5,3.6-0.9,5.4-1.3C108.7,135.8,108.8,135.9,108.8,136.1z"/>
			<path class="st2" d="M19.6,100.5c0.7,2.4,1.4,4.8,1.2,7.4c0,0.4-0.1,0.8-0.3,1.2c-0.2,0.6-0.6,0.8-1.2,0.8s-1.1-0.3-1.1-0.9
				c-0.1-1.2-0.2-2.5,0-3.7c0.2-1.6,0.7-3.2,1.1-4.8C19.4,100.5,19.5,100.5,19.6,100.5z"/>
			<path class="st2" d="M119.6,62.8c0.9,2.5,1.6,5,1.3,7.7c0,0.3,0,0.6-0.2,0.7c-0.3,0.3-0.8,0.8-1.2,0.8c-0.4,0-0.9-0.4-1.2-0.8
				c-0.2-0.2-0.2-0.7-0.2-1C118,67.6,118.7,65.2,119.6,62.8z"/>
			<path class="st2" d="M30.2,135.8c2.7,0.3,5.3,0.6,7.6,2c0.2,0.1,0.5,0.3,0.6,0.5c0.1,0.4,0.4,1,0.2,1.3c-0.2,0.4-0.8,0.6-1.2,0.7
				c-0.4,0.1-0.9-0.2-1.2-0.3C33.8,139.1,32,137.5,30.2,135.8z"/>
			<path class="st2" d="M19.6,62.7c0.8,2.5,1.4,5.1,1.2,7.7c0,0.3-0.1,0.5-0.2,0.8c-0.2,0.6-0.7,1-1.3,0.8c-0.4-0.1-1-0.5-1.1-0.9
				c-0.2-1-0.3-2.1-0.1-3.1c0.3-1.8,0.7-3.5,1.1-5.3C19.4,62.7,19.5,62.7,19.6,62.7z"/>
			<path class="st2" d="M96.7,35c2.4-0.7,4.6-1.3,7-1.3c0.5,0,0.9,0.1,1.4,0.2c0.7,0.1,1.1,0.5,1.1,1.3s-0.5,1.1-1.1,1.2
				c-0.7,0.1-1.5,0.2-2.2,0.1c-1.9-0.3-3.8-0.8-5.6-1.2C97.1,35.3,97,35.2,96.7,35z"/>
			<path class="st2" d="M119.6,100.4c0.8,2.8,1.5,5.4,1.2,8.1c0,0.2-0.1,0.5-0.2,0.7c-0.2,0.6-0.7,0.9-1.2,0.7
				c-0.4-0.1-1-0.5-1.1-0.8c-0.2-0.9-0.3-1.9-0.2-2.8c0.3-1.7,0.7-3.4,1.1-5C119.3,101,119.4,100.8,119.6,100.4z"/>
			<path class="st2" d="M73.1,145.8c-2.6,0.8-5.2,1.8-8,1.4c-1-0.1-1.5-0.6-1.4-1.3c0-0.8,0.5-1.2,1.5-1.3
				C67.9,144.2,70.5,145,73.1,145.8z"/>
			<path class="st2" d="M35,35c2.4-0.7,4.7-1.3,7.1-1.3c0.6,0,1.2,0.1,1.7,0.4c0.3,0.2,0.7,0.8,0.7,1.2c0,0.3-0.4,0.9-0.7,1
				c-0.8,0.2-1.6,0.4-2.4,0.2c-1.9-0.3-3.8-0.8-5.7-1.2C35.4,35.3,35.3,35.2,35,35z"/>
			<path class="st2" d="M66,35.1c2.3-0.8,4.6-1.4,7.1-1.4c0.5,0,1,0.1,1.3,0.3c0.4,0.3,0.7,0.8,0.8,1.2c0,0.4-0.5,0.7-0.8,1.1
				c-0.1,0.1-0.3,0.1-0.5,0.2C71.2,36.8,68.6,36,66,35.1z"/>
		</g>
	</g>
</g>
</svg>
